<svg xmlns="http://www.w3.org/2000/svg" width="22" height="30" viewBox="0 0 22 30"><g><g><path fill="#fff" d="M16.5 10.91c0 3.011-2.462 5.454-5.5 5.454s-5.5-2.443-5.5-5.455S7.962 5.454 11 5.454s5.5 2.443 5.5 5.455zm-1.375 0c0-2.26-1.847-4.092-4.125-4.092S6.875 8.65 6.875 10.909C6.875 13.17 8.722 15 11 15s4.125-1.832 4.125-4.09zm6.875 0C22 19.772 11 30 11 30S0 19.773 0 10.91C0 4.883 4.925 0 11 0s11 4.884 11 10.91zm-1.375 0c0-5.273-4.31-9.546-9.625-9.546-5.316 0-9.625 4.273-9.625 9.545C1.375 19.091 11 27.955 11 27.955s9.625-8.864 9.625-17.046z"/></g></g></svg>