<svg xmlns="http://www.w3.org/2000/svg" width="146" height="34" viewBox="0 0 146 34">
     <path d="M1.188 33.383c-.797-.12-1.195-.525-1.195-1.214 0-.343.055-.682.168-1.015.112-.336.178-.521.199-.562L7.163 13.51a2.19 2.19 0 0 1 .812-.988c.359-.23.783-.356 1.273-.377h4.414c.53.02.97.161 1.318.425.346.26.581.576.704.94l6.864 17.08c.021.103.082.31.184.621.102.316.154.614.154.895 0 .73-.409 1.156-1.226 1.276h-4.198c-.43 0-.792-.075-1.088-.227-.296-.154-.487-.37-.568-.654l-.95-3.032H8.023l-.95 3.032c-.082.284-.266.5-.551.654-.286.152-.645.227-1.073.227zm12.565-9.043l-2.421-7.13-2.39 7.13zM27.3 33.352c-.348 0-.65-.127-.904-.377a1.29 1.29 0 0 1-.383-.957V13.45c0-.384.127-.706.383-.97.255-.261.556-.395.904-.395h4.138c.346 0 .648.134.904.395.255.264.383.586.383.97v13.593h8.428c.388 0 .72.12.996.364.275.243.414.545.414.909v3.823c0 .346-.139.638-.414.881a1.45 1.45 0 0 1-.996.364H28.096zm17.409-10.466c0-2.003.505-3.854 1.517-5.552a11.307 11.307 0 0 1 4.09-4.05c1.717-1 3.586-1.502 5.609-1.502s3.897.501 5.624 1.503a11.269 11.269 0 0 1 4.106 4.05 10.651 10.651 0 0 1 1.518 5.551c0 2.003-.506 3.851-1.518 5.552a11.3 11.3 0 0 1-4.106 4.05 11.017 11.017 0 0 1-5.624 1.502c-2.023 0-3.892-.5-5.608-1.502a11.338 11.338 0 0 1-4.091-4.05 10.662 10.662 0 0 1-1.517-5.552zm15.996-.274c0-.868-.225-1.667-.673-2.397a5.063 5.063 0 0 0-1.793-1.742 4.697 4.697 0 0 0-2.406-.655 4.8 4.8 0 0 0-2.466.655 4.816 4.816 0 0 0-1.763 1.742 4.64 4.64 0 0 0-.643 2.397c0 .871.213 1.673.643 2.414a4.81 4.81 0 0 0 1.763 1.76 4.795 4.795 0 0 0 2.466.65c.858 0 1.66-.215 2.406-.65a5.054 5.054 0 0 0 1.793-1.76 4.57 4.57 0 0 0 .673-2.414zM87.675 33.17c-.123-.061-1.012-.95-2.666-2.668-1.655-1.72-4.077-4.259-7.264-7.616-.306-.305-.5-.456-.581-.456-.084 0-.134.045-.155.137-.02.09-.03.237-.03.44v9.073c0 .322-.117.607-.352.847a1.165 1.165 0 0 1-.873.363h-4.077c-.388 0-.726-.154-1.012-.47a1.586 1.586 0 0 1-.428-1.107v-17.87c0-.442.153-.836.46-1.183.306-.342.663-.514 1.071-.514h3.802c.346 0 .617.044.81.137.195.09.446.299.752.62l4.597 4.75a548.916 548.916 0 0 0 4.995 5.11c.165.103.277.154.338.154.123 0 .183-.161.183-.487v-9.04c0-.325.123-.613.37-.867.244-.25.519-.377.826-.377h3.893c.449 0 .837.161 1.164.483.327.326.49.7.49 1.125v18.051c0 .405-.158.769-.474 1.091-.317.326-.681.487-1.088.487h-3.464c-.388 0-.658-.014-.812-.045a1.88 1.88 0 0 1-.475-.168zm10.572-1.09v-3.793c0-.346.06-.655.184-.926.123-.274.256-.46.398-.562l10.144-8.525H99.32c-.388 0-.684-.13-.888-.394a1.402 1.402 0 0 1-.307-.882V13.45c0-.343.128-.638.383-.878.256-.243.506-.363.752-.363l17.437.058c.265 0 .49.117.674.35.185.233.277.542.277.926v3.912c0 .607-.215 1.104-.644 1.489l-9.715 8.432 9.47-.15c.347 0 .598.147.75.438.155.295.231.614.231.957v3.336c0 .364-.076.693-.23.988-.153.291-.425.439-.813.439H99.473c-.408 0-.715-.137-.92-.408a1.467 1.467 0 0 1-.306-.895zm39.66-29.128c0 .769-.286 1.427-.86 1.972a2.87 2.87 0 0 1-2.052.82 2.753 2.753 0 0 1-2.007-.834 2.735 2.735 0 0 1-.844-2.02c0-.788.277-1.464.828-2.03a2.72 2.72 0 0 1 2.023-.85c.817 0 1.507.278 2.068.833.563.56.843 1.259.843 2.11zm-1.809-.243a1.091 1.091 0 0 0-.383-.696 1.13 1.13 0 0 0-.751-.275c-.307 0-.561.107-.766.32-.204.212-.306.47-.306.774 0 .302.107.56.322.772.215.213.474.319.78.319.307 0 .572-.13.798-.395.225-.26.325-.535.306-.82zm9.899 6.19c0 .788-.226 1.536-.674 2.246a5.195 5.195 0 0 1-1.748 1.697c-.715.425-1.46.638-2.236.638a4.431 4.431 0 0 1-2.269-.607 4.683 4.683 0 0 1-1.67-1.64 4.276 4.276 0 0 1-.628-2.273c0-.809.204-1.563.613-2.26a4.63 4.63 0 0 1 1.656-1.67 4.389 4.389 0 0 1 2.298-.62c.816 0 1.583.195 2.299.59a4.612 4.612 0 0 1 1.716 1.625c.428.686.643 1.444.643 2.274zm-3.004-.09c0-.466-.173-.853-.521-1.169a1.735 1.735 0 0 0-1.195-.47c-.511 0-.92.161-1.226.484a1.67 1.67 0 0 0-.46 1.183c0 .466.158.867.475 1.2.317.333.72.5 1.21.5.451 0 .85-.17 1.196-.514.348-.346.521-.75.521-1.214zm-22.647 14.077c0-2.003.505-3.854 1.517-5.552a11.307 11.307 0 0 1 4.09-4.05c1.717-1 3.586-1.502 5.61-1.502 2.022 0 3.896.501 5.623 1.503a11.269 11.269 0 0 1 4.106 4.05 10.651 10.651 0 0 1 1.518 5.551c0 2.003-.506 3.851-1.518 5.552a11.3 11.3 0 0 1-4.106 4.05 11.017 11.017 0 0 1-5.624 1.502c-2.023 0-3.892-.5-5.608-1.502a11.338 11.338 0 0 1-4.091-4.05 10.662 10.662 0 0 1-1.517-5.552zm15.996-.274c0-.868-.225-1.667-.673-2.397a5.064 5.064 0 0 0-1.793-1.742 4.698 4.698 0 0 0-2.406-.655c-.899 0-1.721.22-2.466.655a4.816 4.816 0 0 0-1.763 1.742 4.64 4.64 0 0 0-.643 2.397c0 .871.213 1.673.643 2.414a4.81 4.81 0 0 0 1.763 1.76 4.796 4.796 0 0 0 2.466.65c.858 0 1.66-.215 2.406-.65a5.055 5.055 0 0 0 1.793-1.76 4.57 4.57 0 0 0 .673-2.414z"/>
</svg>
