<svg xmlns="http://www.w3.org/2000/svg" width="22" height="30" viewBox="0 0 22 30">
    <defs>
        <linearGradient id="geo-gradient" x1="0" x2="10" y1="3" y2="13" gradientUnits="userSpaceOnUse">
            <stop offset="0" stop-color="#4458fa"/>
            <stop offset="1" stop-color="#5ed6ee"/>
        </linearGradient>
    </defs>
    <path d="M21.473 7.464c.027.081.52 1.387.52 1.76v1.414c0 3.442-3.243 6.935-5.256 10.402-.199.348-.632.72-.859 1.093-.341.56-.736 1.148-1.076 1.734-1.248 2-2.52 4.08-3.796 6.134-2.07-3.147-4.16-6.295-6.175-9.496C2.959 17.52.453 14.346.055 11.36c-.028-.24-.048-.72-.048-.773v-1.28C.717 3.038 6.03-.002 10.851-.002c3.604 0 8.065 1.653 10.107 6.268.171.372.403.8.516 1.2zm-10.655 8.04c2.755 0 5.036-2.109 5.036-4.747 0-2.64-2.131-4.751-4.887-4.751-2.24 0-4.812 1.32-4.812 4.221v1.023c0 .065-.011.792.128 1.155.93 2.274 2.815 3.098 4.536 3.098z"/>
</svg>
