<svg xmlns="http://www.w3.org/2000/svg" width="15" height="12" viewBox="0 0 15 12">
    <path d="M14.586.22c-.595.347-1.254.6-1.955.735a3.09 3.09 0 0 0-2.246-.957c-1.7 0-3.077 1.357-3.077 3.03 0 .236.027.468.08.69A8.783 8.783 0 0 1 1.044.551a2.974 2.974 0 0 0-.416 1.522c0 1.053.543 1.98 1.368 2.522a3.104 3.104 0 0 1-1.394-.38v.038c0 1.468 1.061 2.692 2.468 2.972a3.112 3.112 0 0 1-1.39.05 3.078 3.078 0 0 0 2.874 2.106 6.24 6.24 0 0 1-3.821 1.296c-.249 0-.493-.015-.734-.041a8.819 8.819 0 0 0 4.717 1.36c5.66 0 8.755-4.617 8.755-8.62l-.01-.393A6.144 6.144 0 0 0 15 1.417a6.236 6.236 0 0 1-1.767.479A3.061 3.061 0 0 0 14.586.219z"/>
</svg>
