<svg xmlns="http://www.w3.org/2000/svg" width="60" height="60" viewBox="0 0 60 60">
    <path d="M60 30c0 1.114-.7 2.042-1.315 2.86-.41.544-.834 1.106-.901 1.541l-1.854-.29c.143-.9.71-1.652 1.257-2.378.46-.614.938-1.246.938-1.733 0-.487-.477-1.12-.938-1.732-.547-.727-1.114-1.48-1.256-2.378-.144-.925.167-1.83.469-2.706.245-.71.497-1.444.356-1.877-.148-.454-.793-.905-1.417-1.342-.75-.524-1.526-1.066-1.943-1.883-.422-.827-.407-1.781-.392-2.703.013-.756.026-1.536-.248-1.912-.277-.38-1.027-.608-1.75-.83-.88-.268-1.79-.545-2.443-1.198-.653-.654-.93-1.564-1.199-2.444-.222-.725-.45-1.474-.83-1.75-.375-.275-1.156-.26-1.912-.25-.919.019-1.876.032-2.703-.39-.816-.418-1.359-1.194-1.883-1.944-.437-.624-.889-1.27-1.34-1.416-.437-.143-1.17.111-1.88.356-.876.302-1.784.611-2.706.469-.899-.142-1.651-.708-2.378-1.257-.613-.46-1.245-.938-1.732-.938-.487 0-1.12.477-1.73.938-.728.549-1.481 1.116-2.379 1.257-.924.144-1.83-.167-2.706-.469-.71-.244-1.444-.499-1.877-.356-.453.147-.905.792-1.341 1.416-.525.751-1.067 1.526-1.885 1.944-.827.422-1.78.406-2.702.39-.755-.013-1.536-.025-1.912.25-.38.276-.608 1.025-.83 1.75-.268.88-.545 1.789-1.199 2.442-.653.654-1.563.931-2.443 1.2-.725.222-1.475.45-1.751.83-.273.376-.26 1.156-.248 1.912.015.922.03 1.876-.391 2.703-.418.817-1.194 1.359-1.944 1.883-.624.437-1.27.888-1.417 1.34-.142.435.111 1.17.356 1.88.302.875.614 1.78.469 2.705-.142.9-.708 1.65-1.257 2.379-.46.612-.938 1.244-.938 1.731 0 .487.477 1.12.938 1.732.549.727 1.116 1.479 1.257 2.378l-1.853.291c-.068-.435-.491-.998-.9-1.54C.698 32.04 0 31.113 0 30c0-1.115.7-2.043 1.317-2.861.41-.543.833-1.105.901-1.54.073-.465-.162-1.145-.389-1.804-.329-.956-.702-2.038-.367-3.07.342-1.05 1.29-1.714 2.127-2.299.561-.392 1.143-.799 1.347-1.199.209-.411.198-1.127.186-1.82-.016-1.014-.035-2.163.607-3.045.646-.887 1.748-1.224 2.72-1.52.66-.201 1.342-.41 1.665-.732.321-.323.53-1.004.731-1.664.296-.972.633-2.075 1.52-2.72.883-.643 2.031-.626 3.046-.606.69.01 1.408.023 1.818-.187.402-.204.808-.786 1.2-1.347.585-.837 1.248-1.785 2.3-2.126 1.03-.334 2.111.038 3.067.367.659.227 1.341.463 1.803.39.436-.07.998-.492 1.54-.902C27.96.7 28.887 0 30 0s2.042.7 2.86 1.316c.543.409 1.105.833 1.54.901.463.071 1.146-.162 1.804-.389.956-.328 2.04-.7 3.072-.365 1.05.34 1.713 1.289 2.297 2.126.393.562.8 1.144 1.2 1.348.41.21 1.127.2 1.82.186 1.013-.017 2.162-.035 3.044.607.888.645 1.225 1.747 1.52 2.72.201.659.41 1.341.732 1.664.322.321 1.004.53 1.663.73.972.297 2.075.634 2.72 1.52.642.884.623 2.032.606 3.047-.01.691-.023 1.407.187 1.818.205.402.786.808 1.348 1.2.837.586 1.786 1.248 2.126 2.299.335 1.031-.037 2.113-.367 3.068-.227.658-.461 1.34-.388 1.803.067.437.491.998.9 1.54C59.302 27.959 60 28.887 60 30zm-7.247 16.534l1.516 1.103c-.645.887-1.747 1.224-2.72 1.52-.659.201-1.34.41-1.663.732-.322.322-.53 1.005-.732 1.664-.296.972-.633 2.074-1.519 2.719-.884.642-2.038.622-3.046.606-.693-.013-1.408-.024-1.818.187-.4.204-.807.786-1.2 1.347-.584.837-1.247 1.787-2.298 2.127-1.029.336-2.111-.037-3.068-.367-.659-.227-1.346-.469-1.803-.388-.436.067-.999.491-1.542.9C32.042 59.3 31.114 60 30 60c-1.114 0-2.042-.7-2.86-1.316-.543-.41-1.105-.833-1.54-.901-.463-.08-1.145.162-1.804.388-.956.33-2.038.7-3.069.368-1.05-.343-1.714-1.29-2.299-2.128-.392-.562-.798-1.144-1.199-1.348-.41-.21-1.127-.194-1.818-.186-1.016.016-2.165.037-3.047-.607-.887-.645-1.224-1.747-1.52-2.719-.201-.66-.41-1.341-.732-1.664-.323-.322-1.005-.53-1.665-.732-.971-.296-2.074-.633-2.719-1.519l1.516-1.104c.276.38 1.026.61 1.75.83.88.269 1.79.546 2.443 1.2.654.652.931 1.563 1.2 2.442.222.725.45 1.473.83 1.75.376.275 1.157.259 1.913.25.92-.016 1.875-.032 2.702.39.816.418 1.358 1.193 1.883 1.944.436.624.888 1.27 1.34 1.417.437.143 1.17-.111 1.88-.356.875-.3 1.783-.607 2.705-.469.898.143 1.651.71 2.378 1.257.613.46 1.245.938 1.732.938.487 0 1.12-.477 1.732-.938.726-.548 1.478-1.115 2.377-1.257.923-.138 1.83.168 2.706.469.71.246 1.443.499 1.878.356.454-.148.905-.793 1.342-1.417.524-.75 1.066-1.526 1.883-1.942.828-.423 1.78-.408 2.703-.392.75.01 1.536.024 1.91-.25.382-.276.61-1.025.83-1.75.27-.879.547-1.789 1.2-2.441.653-.654 1.563-.932 2.443-1.2.724-.222 1.475-.45 1.75-.829zm-48.066-.596a2.816 2.816 0 0 1-2.812-2.813V37.5a2.816 2.816 0 0 1 2.813-2.813A2.816 2.816 0 0 1 7.5 37.5v.938H5.625V37.5a.938.938 0 0 0-1.875 0v5.625a.938.938 0 0 0 1.875 0v-.937h-.938v-1.875h1.875c.518 0 .938.418.938.937v1.875a2.816 2.816 0 0 1-2.813 2.813zm5.625-11.25v8.437a.938.938 0 0 0 1.876 0v-8.438h1.874v8.438a2.816 2.816 0 0 1-2.812 2.813 2.816 2.816 0 0 1-2.813-2.813v-8.438zm7.5 0a2.816 2.816 0 0 1 2.813 2.812v8.438H18.75v-1.876h-1.875v1.876H15V37.5a2.816 2.816 0 0 1 2.813-2.813zm0 1.874a.938.938 0 0 0-.937.938v4.688h1.875V37.5a.938.938 0 0 0-.938-.938zm13.125-1.875A2.816 2.816 0 0 1 33.75 37.5v8.438h-1.875v-1.876H30v1.876h-1.875V37.5a2.816 2.816 0 0 1 2.813-2.813zM30 37.5v4.688h1.875V37.5a.938.938 0 0 0-1.875 0zm-7.5-2.813h1.406a3.285 3.285 0 0 1 3.282 3.282 3.286 3.286 0 0 1-2.77 3.24l2.282 2.853h.488v1.876h-.938a.938.938 0 0 1-.732-.352l-2.08-2.6v2.952h-1.875V35.625c0-.518.42-.938.937-.938zm.938 4.688h.468c.776 0 1.407-.63 1.407-1.406 0-.776-.631-1.407-1.407-1.407h-.468zm15-4.688h1.874V45a.937.937 0 0 1-1.808.348l-1.941-4.855v5.445h-1.876V35.625c0-.449.32-.836.76-.92a.947.947 0 0 1 1.049.572l1.942 4.855zM45 45.937h-1.875v-9.375H41.25v-1.875h5.625v1.875H45zm4.688-9.375v2.813H52.5v1.875h-2.813v2.812H52.5v1.876h-3.75a.937.937 0 0 1-.938-.938v-9.375c0-.518.42-.938.938-.938h3.75v1.875zm4.687-1.875h3.75v1.875h-2.813v2.813h2.813v1.875h-2.813v2.812h2.813v1.876h-3.75a.937.937 0 0 1-.938-.938v-9.375c0-.518.42-.938.938-.938zm-1.127-1.758l-1.86-.233c.116-.922.175-1.83.175-2.696C51.563 18.11 41.89 8.438 30 8.438 18.11 8.438 8.437 18.11 8.437 30c0 .866.059 1.774.174 2.696l-1.86.233A23.76 23.76 0 0 1 6.562 30C6.562 17.076 17.078 6.562 30 6.562c12.923 0 23.438 10.514 23.438 23.438 0 .944-.063 1.93-.19 2.929zM30 53.438a23.21 23.21 0 0 1-14.312-4.884l1.147-1.483A21.354 21.354 0 0 0 30 51.562c4.81 0 9.36-1.553 13.166-4.491l1.147 1.483A23.213 23.213 0 0 1 30 53.438zm-8.438-32.813v10.312h-1.875v-9.374h-.937v-1.875h1.875c.517 0 .938.42.938.937zm7.5 2.344v4.687a3.285 3.285 0 0 1-3.28 3.281 3.285 3.285 0 0 1-3.282-3.28v-4.688a3.285 3.285 0 0 1 3.281-3.281 3.285 3.285 0 0 1 3.282 3.28zm-1.875 0c0-.775-.63-1.406-1.406-1.406-.775 0-1.406.63-1.406 1.406v4.687c0 .776.63 1.407 1.406 1.407.776 0 1.407-.631 1.407-1.407zm9.375 0v4.687a3.285 3.285 0 0 1-3.28 3.281A3.285 3.285 0 0 1 30 27.657v-4.688a3.285 3.285 0 0 1 3.281-3.281 3.285 3.285 0 0 1 3.282 3.28zm-1.874 0a1.408 1.408 0 0 0-2.813 0v4.687c0 .776.63 1.407 1.406 1.407.776 0 1.407-.631 1.407-1.407zm4.784 6.612l3.75-7.5 1.678.838-3.75 7.5zm-1.035-6.144h1.876v1.876h-1.876zm5.626 3.75h1.874v1.876h-1.874z"/>
</svg>
