<svg xmlns="http://www.w3.org/2000/svg" width="32" height="22" viewBox="0 0 32 22">
    <path d="M32 2.75v16.5c0 1.518-1.303 2.75-2.91 2.75H2.91C1.303 22 0 20.768 0 19.25V2.75C0 1.231 1.303 0 2.909 0h26.182C30.697 0 32 1.231 32 2.75zM2.425 1.46l12.59 11.9c.263.25.613.387.985.387s.722-.137.986-.386l12.59-11.902a1.51 1.51 0 0 0-.485-.084H2.909c-.17 0-.332.033-.484.084zM1.48 19.488L10.46 11 1.48 2.51a1.32 1.32 0 0 0-.025.24v16.5c0 .082.01.161.025.239zm28.097 1.052l-9.066-8.569-2.497 2.36a2.923 2.923 0 0 1-2.014.79 2.925 2.925 0 0 1-2.014-.79l-2.497-2.36-9.064 8.57c.152.05.314.083.484.083h26.182c.171 0 .332-.033.486-.084zm.968-17.79c0-.083-.011-.162-.025-.24L21.54 11l8.98 8.489c.014-.078.025-.157.025-.239z"/>
</svg>
