<svg xmlns="http://www.w3.org/2000/svg" width="30" height="30" viewBox="0 0 30 30">
    <path d="M30 23.863C30 26.591 26.794 30 22.84 30a7.13 7.13 0 0 1-3.057-.692l-.022.021c-8.17-4.102-14.988-10.92-19.09-19.09l.022-.023A7.122 7.122 0 0 1 0 7.16c0-3.954 3.409-7.16 6.136-7.16.565 0 1.076.23 1.446.6.11.11.201.234.283.364l4.49 5.773c.37.37.6.881.6 1.446 0 .462-.159.884-.42 1.224l-1.602 1.591.002.003a1.364 1.364 0 0 0 .105 2.164c-.016.01-.03.023-.046.033a26.032 26.032 0 0 0 5.818 5.794c.008-.014.02-.027.028-.04a1.353 1.353 0 0 0 2.127.122l.004.004 1.61-1.623c.342-.26.764-.42 1.226-.42.565 0 1.076.23 1.447.6l5.772 4.49c.132.081.256.173.364.283.37.37.6.881.6 1.446H30v.01zm-1.367.127a1.37 1.37 0 0 1-.007-.137.679.679 0 0 0-.2-.482.71.71 0 0 0-.122-.09 1.398 1.398 0 0 1-.115-.08l-5.773-4.49a1.62 1.62 0 0 1-.126-.113.68.68 0 0 0-.483-.2.638.638 0 0 0-.34.1l-1.528 1.54c-.025.025-.05.049-.077.072a2.727 2.727 0 0 1-1.907.786 2.732 2.732 0 0 1-1.888-.763 27.355 27.355 0 0 1-6.177-6.137 1.228 1.228 0 0 1-.054-.079 2.729 2.729 0 0 1 .116-3.867l.02-.021 1.52-1.508a.631.631 0 0 0 .099-.34.68.68 0 0 0-.2-.481 1.257 1.257 0 0 1-.112-.127L6.789 1.8a1.298 1.298 0 0 1-.078-.112.776.776 0 0 0-.093-.125.68.68 0 0 0-.482-.2c-1.877 0-4.772 2.49-4.772 5.796 0 .854.189 1.687.561 2.474.036.076.065.155.086.235 3.956 7.749 10.378 14.17 18.129 18.125.077.02.153.048.227.082a5.745 5.745 0 0 0 2.474.561c3.234 0 5.685-2.769 5.792-4.646z"/>
</svg>
