<svg xmlns="http://www.w3.org/2000/svg" width="32" height="40" viewBox="0 0 32 40">
    <path d="M8.606 9.854c0 .999-.842 1.812-2.005 2.03v.1a.626.626 0 1 1-1.254 0v-.1c-1.163-.217-2.005-1.031-2.005-2.03a.626.626 0 0 1 1.253 0c0 .282.29.587.752.738V8.415c-.89-.337-2.005-.923-2.005-2.319 0-.999.842-1.812 2.005-2.03v-.1a.626.626 0 1 1 1.254 0v.1c1.163.218 2.005 1.031 2.005 2.03a.626.626 0 0 1-1.253 0c0-.282-.29-.587-.752-.738v2.176c.89.338 2.005.925 2.005 2.32zM5.347 5.358c-.462.151-.752.456-.752.738 0 .38.128.647.752.953zm2.005 4.496c0-.38-.127-.647-.751-.953v1.69c.461-.15.751-.455.751-.737zm9.275-4.551c0 .345-.28.626-.627.626h-5.347a.627.627 0 0 1 0-1.253H16c.346 0 .627.28.627.627zm6.684 10.02c0 .346-.28.627-.627.627H3.97a.626.626 0 1 1 0-1.253h18.715c.346 0 .627.28.627.626zm-12.7 4.009c0 .346-.28.626-.627.626H7.98a.626.626 0 1 1 0-1.252h2.005c.346 0 .627.28.627.626zm-4.679 0c0 .346-.28.626-.627.626H3.97a.626.626 0 1 1 0-1.252h1.337c.345 0 .626.28.626.626zm4.679 5.344c0 .346-.28.627-.627.627H7.98a.626.626 0 1 1 0-1.253h2.005c.346 0 .627.28.627.626zm-4.679 0c0 .346-.28.627-.627.627H3.97a.626.626 0 1 1 0-1.253h1.337c.345 0 .626.28.626.626zm4.679 5.345c0 .346-.28.626-.627.626H7.98a.626.626 0 1 1 0-1.252h2.005c.346 0 .627.28.627.626zm-4.679 0c0 .346-.28.626-.627.626H3.97a.626.626 0 1 1 0-1.252h1.337c.345 0 .626.28.626.626zM32 20v17.368C32 38.82 30.82 40 29.368 40H14.663a2.634 2.634 0 0 1-2.632-2.63v-1.378H1.963A1.965 1.965 0 0 1 0 34.029V1.963C0 .88.88 0 1.963 0h17.38c.165 0 .325.066.442.183l6.684 6.681a.625.625 0 0 1 .184.443V17.37h2.715A2.634 2.634 0 0 1 32 20zM19.969 5.302c0 .76.618 1.378 1.378 1.378h3.166L19.97 2.138zM12.03 20c0-1.45 1.181-2.63 2.632-2.63H25.4V7.932h-4.052a2.634 2.634 0 0 1-2.632-2.63v-4.05H1.963a.711.711 0 0 0-.71.71v32.066c0 .391.319.71.71.71h10.068zm18.716 17.37V20a1.38 1.38 0 0 0-1.379-1.378H14.663A1.38 1.38 0 0 0 13.285 20v17.37c0 .76.618 1.377 1.378 1.377h14.705a1.38 1.38 0 0 0 1.379-1.378zm-1.42-16.034v2.672c0 .714-.581 1.295-1.296 1.295H16c-.714 0-1.295-.581-1.295-1.295v-2.672c0-.714.58-1.294 1.295-1.294h12.031c.715 0 1.295.58 1.295 1.294zm-1.254 2.672v-2.672a.042.042 0 0 0-.042-.042H16a.042.042 0 0 0-.042.042v2.672c0 .023.019.042.042.042h12.032a.042.042 0 0 0 .041-.042zm-9.441 4.676v1.337c0 .714-.581 1.294-1.295 1.294H16c-.714 0-1.295-.58-1.295-1.294v-1.337c0-.713.58-1.294 1.295-1.294h1.337c.714 0 1.295.58 1.295 1.294zm-1.253 1.337v-1.336a.042.042 0 0 0-.042-.042H16a.042.042 0 0 0-.042.042v1.336c0 .023.019.041.042.041h1.337a.042.042 0 0 0 .042-.041zm11.947-1.337v1.337c0 .714-.58 1.294-1.295 1.294h-1.336c-.714 0-1.296-.58-1.296-1.294v-1.337c0-.713.582-1.294 1.296-1.294h1.336c.715 0 1.295.58 1.295 1.294zm-1.253.001a.042.042 0 0 0-.041-.042h-1.337a.042.042 0 0 0-.042.042v1.336c0 .023.019.041.042.041h1.337a.041.041 0 0 0 .041-.041zm-4.094 0v1.336c0 .714-.58 1.294-1.295 1.294h-1.337c-.714 0-1.295-.58-1.295-1.294v-1.337c0-.713.581-1.294 1.295-1.294h1.337c.714 0 1.295.58 1.295 1.294zm-1.253 0a.042.042 0 0 0-.042-.042h-1.337a.042.042 0 0 0-.041.042v1.336c0 .023.018.041.041.041h1.337a.042.042 0 0 0 .042-.041zm-4.094 5.344v1.337c0 .713-.581 1.294-1.295 1.294H16c-.714 0-1.295-.58-1.295-1.294v-1.337c0-.714.58-1.294 1.295-1.294h1.337c.714 0 1.295.58 1.295 1.294zm-1.253 1.337v-1.337a.042.042 0 0 0-.042-.041H16a.042.042 0 0 0-.042.041v1.337c0 .022.019.041.042.041h1.337a.042.042 0 0 0 .042-.041zm11.947-1.337v1.337c0 .713-.58 1.294-1.295 1.294h-1.336c-.714 0-1.296-.58-1.296-1.294v-1.337c0-.714.582-1.294 1.296-1.294h1.336c.715 0 1.295.58 1.295 1.294zm-1.253 0a.042.042 0 0 0-.041-.041h-1.337a.042.042 0 0 0-.042.041v1.337c0 .022.019.041.042.041h1.337a.042.042 0 0 0 .041-.041zm-4.094 0v1.337c0 .713-.58 1.294-1.295 1.294h-1.337c-.714 0-1.295-.58-1.295-1.294v-1.337c0-.714.581-1.294 1.295-1.294h1.337c.714 0 1.295.58 1.295 1.294zm-1.253 0a.042.042 0 0 0-.042-.041h-1.337a.042.042 0 0 0-.041.041v1.337c0 .022.018.041.041.041h1.337a.042.042 0 0 0 .042-.041z"/>
</svg>
