<svg xmlns="http://www.w3.org/2000/svg" width="60" height="44" viewBox="0 0 60 44">
    <path d="M60 4.217v35.566A4.222 4.222 0 0 1 55.783 44H4.217A4.222 4.222 0 0 1 0 39.783V4.217A4.222 4.222 0 0 1 4.217 0h51.566A4.222 4.222 0 0 1 60 4.217zm-2 0A2.22 2.22 0 0 0 55.783 2H4.217A2.22 2.22 0 0 0 2 4.217v35.566A2.22 2.22 0 0 0 4.217 42h51.566A2.22 2.22 0 0 0 58 39.783zM5 29h11v8H5zm2 6h7v-4H7zm11-6h11v8H18zm2 6h7v-4h-7zm11-6h11v8H31zm2 6h7v-4h-7zm11-6h11v8H44zm2 6h7v-4h-7zM5 17.745v-9.49A2.258 2.258 0 0 1 7.255 6h13.49A2.258 2.258 0 0 1 23 8.255v9.49A2.258 2.258 0 0 1 20.745 20H7.255A2.258 2.258 0 0 1 5 17.745zM11 12H7v2h4zm-3.745 6h3.771c-.01-.085-.026-.168-.026-.255V16H7v1.745c0 .14.114.255.255.255zM21 11.974c-.085.01-.168.026-.255.026h-3.49a.255.255 0 0 0-.255.255V14h4zm0 5.771V16h-4v1.745c0 .087-.016.17-.026.255h3.771a.255.255 0 0 0 .255-.255zM13.255 8a.255.255 0 0 0-.255.255v9.49c0 .14.114.255.255.255h1.49a.255.255 0 0 0 .255-.255v-5.49A2.258 2.258 0 0 1 17.255 10h3.49A.255.255 0 0 0 21 9.745v-1.49A.255.255 0 0 0 20.745 8zM7 8.255V10h4V8.255c0-.087.016-.17.026-.255H7.255A.255.255 0 0 0 7 8.255zM31 7a1 1 0 0 1 1-1h9a1 1 0 1 1 0 2h-9a1 1 0 0 1-1-1zm24 0a1 1 0 0 1-1 1h-9a1 1 0 1 1 0-2h9a1 1 0 0 1 1 1zm-24 5a1 1 0 0 1 1-1h1a1 1 0 1 1 0 2h-1a1 1 0 0 1-1-1zm8-1a1 1 0 1 1 0 2h-2a1 1 0 1 1 0-2zm5 2h-1a1 1 0 1 1 0-2h1a1 1 0 1 1 0 2zm4 0a1 1 0 1 1 0-2h2a1 1 0 1 1 0 2zm6.71-1.71c.18.19.29.45.29.71 0 .26-.11.52-.29.71-.19.18-.45.29-.71.29a1.03 1.03 0 0 1-.71-.29c-.181-.19-.29-.45-.29-.71 0-.26.109-.52.29-.71.37-.37 1.04-.37 1.42 0z"/>
</svg>
