<svg xmlns="http://www.w3.org/2000/svg" width="37" height="40" viewBox="0 0 37 40">
    <path d="M37 36.183v1.55C37 38.983 35.893 40 34.533 40H20.35h-3.696H2.467C1.107 40 0 38.983 0 37.733v-1.55c0-1.345.419-2.707 1.18-3.836.83-1.234 1.99-2.09 3.352-2.478a.952.952 0 0 1 .04-.01l4.92-1.042 1.324-2.035a1.237 1.237 0 0 1 .86-.522c.331-.04.67.06.929.274l.012.01 5.883 5.132 5.883-5.132a1.23 1.23 0 0 1 .941-.283 1.237 1.237 0 0 1 .86.521l1.324 2.035 4.92 1.043a.956.956 0 0 1 .04.01c1.362.386 2.521 1.243 3.353 2.477A6.938 6.938 0 0 1 37 36.183zm-17.594-3.648l1.38 1.399 1.34 1.357 4.257-5.933-1.208-1.856zm-1.633 4.337l-.37 1.878h2.195l-.37-1.878a1.814 1.814 0 0 1-.111.003h-1.234c-.037 0-.074-.001-.11-.003zM19.733 35v-.366l-1.233-1.25-1.233 1.25V35c0 .345.276.625.616.625h1.234c.34 0 .616-.28.616-.625zm-9.116-5.642l4.257 5.933 1.34-1.357 1.38-1.4-5.77-5.032zm-8.15 9.392h13.677l.471-2.386a1.882 1.882 0 0 1-.434-.63l-.945.958a.612.612 0 0 1-.935-.074L9.603 30.07l-4.757 1.008c-2.372.685-3.613 3.084-3.613 5.105v1.55c0 .56.554 1.017 1.234 1.017zm33.3-2.567c0-2.021-1.241-4.42-3.613-5.105l-4.757-1.007-4.698 6.547a.615.615 0 0 1-.935.074l-.945-.958c-.101.24-.25.454-.434.63l.47 2.386h13.678c.68 0 1.234-.456 1.234-1.017zM6.783 18.128v-3.75c0-1.033.83-1.874 1.85-1.874h.103c-.338-1.765-.72-4.093-.72-5.626 0-3.312 1.924-5.624 4.678-5.624.043 0 .085.004.125.012C15.504-.674 18.94.023 22.262.7c1.982.404 3.854.785 5.4.56h.007l.043-.004.019-.001a.96.96 0 0 1 .04 0h.022a.495.495 0 0 1 .035.005l.026.003.03.007.029.006.027.01.029.01c.01.003.02.008.029.012l.025.01.031.019.02.01.033.024.015.01a.832.832 0 0 1 .033.027l.013.012a.521.521 0 0 1 .042.043l.022.026.017.023.015.023.019.03.01.02a.474.474 0 0 1 .018.036c.001.002.003.004.003.007.548 1.26 1.167 5.596-.2 10.877h.253c1.02 0 1.85.84 1.85 1.874v3.75c0 2.85-1.564 5.531-3.892 6.673a4.905 4.905 0 0 1-2.166.523c-.099 0-.198-.005-.297-.011l-.021.021c-1.59 1.418-3.434 2.167-5.335 2.167-2.454 0-4.794-1.24-6.587-3.49a12.388 12.388 0 0 1-2.104-4.008H9.25v7.5a.62.62 0 0 1-.617.624.62.62 0 0 1-.616-.625v-7.607a1.876 1.876 0 0 1-1.234-1.767zm21.932 1.841c-.113.022-.23.034-.348.034h-1.183c-.31.995-.738 1.951-1.275 2.83a.614.614 0 0 1-.849.201.63.63 0 0 1-.2-.86 11.533 11.533 0 0 0 1.671-5.937v-2.474L25.42 11.08c-.44-.216-1.657-.767-3.514-1.227-2.117-.524-5.511-1.03-9.772-.523-.423.957-1.67 3.963-1.67 6.19v.711c0 2.519.881 5.067 2.416 6.993 1.554 1.952 3.553 3.026 5.627 3.026 1.337 0 2.65-.452 3.84-1.31a5.103 5.103 0 0 1-1.145-.698.583.583 0 0 1-.054-.049 1.816 1.816 0 0 1-.797.184c-1.02 0-1.85-.841-1.85-1.875s.83-1.875 1.85-1.875 1.85.841 1.85 1.875c0 .287-.064.559-.179.803 1.13.876 2.465 1.008 3.767.37 1.378-.676 2.451-2.082 2.927-3.707zm-8.365 1.909c-.34 0-.617.28-.617.625 0 .344.277.625.617.625.34 0 .617-.28.617-.625a.621.621 0 0 0-.617-.625zm8.017-8.125h-.602v2.484c0 .84-.09 1.686-.26 2.516h.862c.34 0 .616-.28.616-.625v-3.75a.622.622 0 0 0-.616-.625zM9.25 6.878c0 1.316.315 3.333.623 4.985.543-1.806 1.24-3.282 1.288-3.383 0 0 .002-.001.002-.003a.629.629 0 0 1 .02-.035l.01-.02.017-.025.018-.026.004-.005a.617.617 0 0 1 .11-.11l.014-.01.001-.001a.608.608 0 0 1 .193-.094l.022-.006.026-.005.036-.006.004-.001c8.886-1.159 14.333 1.82 14.56 1.947a.623.623 0 0 1 .27.305l.564 1.36c1.034-4.31.674-7.807.295-9.194a8.89 8.89 0 0 1-.66.025c-1.445 0-3.01-.319-4.648-.651-3.12-.635-6.346-1.292-8.61.45a.61.61 0 0 1-.544.103.601.601 0 0 1-.17.025c-1.715 0-3.445 1.353-3.445 4.375zm-1.233 11.25c0 .345.276.625.616.625h.858c-.17-.83-.26-1.677-.26-2.52V14.88a68.058 68.058 0 0 1-.244-1.127h-.354c-.34 0-.616.281-.616.625z"/>
</svg>
