<svg xmlns="http://www.w3.org/2000/svg" width="39" height="40" viewBox="0 0 39 40">
    <path d="M20.106.612V3.3a.609.609 0 0 1-.606.612.609.609 0 0 1-.606-.612V.612c0-.338.271-.612.606-.612.334 0 .606.274.606.612zm0 36.088v2.687A.61.61 0 0 1 19.5 40a.61.61 0 0 1-.606-.613V36.7c0-.338.271-.612.606-.612.334 0 .606.274.606.612zM3.83 20a.609.609 0 0 1-.605.612H.605A.609.609 0 0 1 0 20a.61.61 0 0 1 .606-.612h2.619A.61.61 0 0 1 3.83 20zM39 20a.609.609 0 0 1-.606.612h-2.619A.609.609 0 0 1 35.17 20a.61.61 0 0 1 .605-.612h2.62c.334 0 .605.274.605.612zM8.423 32.24l-1.852 1.9a.602.602 0 0 1-.856.006.616.616 0 0 1-.007-.865l1.852-1.9a.601.601 0 0 1 .857-.007.617.617 0 0 1 .006.866zM33.292 6.72l-1.852 1.9a.6.6 0 0 1-.857.006.616.616 0 0 1-.006-.866l1.852-1.9a.6.6 0 0 1 .857-.006.616.616 0 0 1 .006.866zm-.006 27.424a.601.601 0 0 1-.857-.006l-1.852-1.9a.617.617 0 0 1 .006-.866.601.601 0 0 1 .857.006l1.852 1.9a.617.617 0 0 1-.006.866zM8.416 8.627a.6.6 0 0 1-.856-.006l-1.852-1.9a.617.617 0 0 1 .007-.866.6.6 0 0 1 .856.006l1.852 1.9a.617.617 0 0 1-.006.866zm19.76 11.964l3.09-3.816h-6.337l-4.237 13.063 5.817-7.186 1.668-2.061zm-.73 2.836l-6.508 8.04a1.843 1.843 0 0 1-2.876 0L6.58 17.283a1.912 1.912 0 0 1-.118-2.247l4.097-6.342a1.85 1.85 0 0 1 1.557-.854h14.769c.628 0 1.21.32 1.556.854l4.098 6.342a1.913 1.913 0 0 1-.119 2.247l-3.306 4.084-1.668 2.061zM12.572 9.063l2.9 4.49 2.902-4.49h-5.802zm8.054 0l2.901 4.49 2.901-4.49zM7.576 15.55h6.607l.567-.877-3.304-5.114zm15.794 0L19.5 9.56l-3.87 5.99h7.74zm-6.306 6.464l2.438 7.564 4.152-12.803h-8.278l.952 2.954.736 2.285zm-1.888-1.906l-1.074-3.333H7.735l10.58 13.071-2.402-7.452-.737-2.286zm9.641-4.558h6.608l-3.87-5.99-3.305 5.113z"/>
</svg>
