<svg xmlns="http://www.w3.org/2000/svg" width="15" height="14" viewBox="0 0 15 14">
    <path d="M.483.461c-.33.305-.493.693-.493 1.164 0 .46.15.847.446 1.16.3.315.703.472 1.211.472h.018c.521 0 .932-.157 1.234-.472.3-.313.45-.7.45-1.16-.02-.464-.162-.852-.428-1.159-.266-.308-.632-.462-1.1-.462C1.26.004.812.157.483.46zM.187 13.99h3.211V4.545H.188zm14.544-7.297c-.189-.528-.447-.971-.777-1.326a2.983 2.983 0 0 0-1.176-.786 4.231 4.231 0 0 0-1.466-.251c-.42 0-.79.05-1.114.151-.322.102-.597.23-.825.384a2.91 2.91 0 0 0-.578.501c-.157.18-.285.352-.385.517v.038h-.017l.017-.038V4.545H5.18c0 .112.005.33.009.658.007.328.012.724.012 1.19v3.204c0 1.33-.008 2.795-.022 4.394h3.23V8.713c0-.145.007-.281.019-.407.013-.129.037-.245.076-.35.117-.29.313-.552.582-.79.27-.24.63-.36 1.079-.36.59 0 1.007.194 1.257.583.251.392.377.907.377 1.55v5.05h3.21V8.576c0-.728-.092-1.355-.278-1.882z"/>
</svg>
