<svg xmlns="http://www.w3.org/2000/svg" width="60" height="54" viewBox="0 0 60 54">
    <path d="M60 14.87v22.394c0 3.57-2.923 6.473-6.517 6.473H47.79v7.523a2.753 2.753 0 0 1-2.76 2.74H14.971a2.753 2.753 0 0 1-2.76-2.74v-7.523H6.517C2.923 43.737 0 40.833 0 37.264V14.87c0-3.569 2.923-6.473 6.517-6.473h5.694V2.74c0-1.51 1.238-2.74 2.76-2.74h30.058c1.522 0 2.76 1.23 2.76 2.74v5.657h5.694c3.594 0 6.517 2.904 6.517 6.473zM13.973 8.397h32.054V2.74a.996.996 0 0 0-.998-.991H14.971a.996.996 0 0 0-.998.991zM1.76 14.87v10.322H58.24V14.87c0-2.605-2.133-4.724-4.756-4.724H6.517c-2.623 0-4.756 2.12-4.756 4.724zm44.266 19.536H13.973V51.26c0 .547.447.991.998.991h30.058c.55 0 .998-.444.998-.991zm12.212 2.858V26.942H1.76v10.322c0 2.605 2.133 4.723 4.756 4.723h5.694v-7.581H6.517a.877.877 0 0 1-.881-.874c0-.484.394-.875.88-.875h46.967c.487 0 .88.391.88.875a.877.877 0 0 1-.88.874H47.79v7.581h5.694c2.622 0 4.756-2.118 4.756-4.723zM46.027 17.669c0-2.025 1.66-3.674 3.699-3.674 2.04 0 3.699 1.649 3.699 3.675 0 2.025-1.66 3.673-3.699 3.673-2.04 0-3.699-1.648-3.699-3.673zm1.762 0c0 1.062.869 1.925 1.937 1.925a1.933 1.933 0 0 0 1.937-1.925c0-1.06-.869-1.924-1.937-1.924a1.933 1.933 0 0 0-1.937 1.925zm-9.276 0a2.753 2.753 0 0 1 2.759-2.74c1.521 0 2.76 1.229 2.76 2.74 0 1.512-1.239 2.741-2.76 2.741-1.521 0-2.76-1.23-2.76-2.74zm1.761 0c0 .547.448.992.998.992s.998-.445.998-.992a.996.996 0 0 0-.998-.99.996.996 0 0 0-.998.99zm1.879 20.528a.878.878 0 0 1-.881.874H18.728a.878.878 0 0 1-.88-.874c0-.483.394-.875.88-.875h22.544c.486 0 .88.392.88.875zm0 4.665a.878.878 0 0 1-.881.875H18.728a.878.878 0 0 1-.88-.875c0-.483.394-.875.88-.875h22.544c.486 0 .88.392.88.875zm0 4.666a.878.878 0 0 1-.881.874H18.728a.878.878 0 0 1-.88-.874c0-.484.394-.875.88-.875h22.544c.486 0 .88.391.88.875z"/>
</svg>
